<?xml version="1.0" encoding="UTF-8"?>
<!DOCTYPE svg PUBLIC "-//W3C//DTD SVG 1.1//EN" "http://www.w3.org/Graphics/SVG/1.1/DTD/svg11.dtd">
<!-- Creator: CorelDRAW X8 -->
<svg xmlns="http://www.w3.org/2000/svg" xml:space="preserve" width="147.649mm" height="63.478mm" version="1.1" style="shape-rendering:geometricPrecision; text-rendering:geometricPrecision; image-rendering:optimizeQuality; fill-rule:evenodd; clip-rule:evenodd"
viewBox="0 0 14765 6348"
 xmlns:xlink="http://www.w3.org/1999/xlink">
 <defs>
  <style type="text/css">
   <![CDATA[
    .fil0 {fill:#FEFEFE}
    .fil12 {fill:#FEFEFE}
    .fil6 {fill:#36ACE2;fill-rule:nonzero}
    .fil10 {fill:#39B54A;fill-rule:nonzero}
    .fil4 {fill:#8DC74C;fill-rule:nonzero}
    .fil7 {fill:#CCDD44;fill-rule:nonzero}
    .fil3 {fill:#DA3265;fill-rule:nonzero}
    .fil9 {fill:#ED1E79;fill-rule:nonzero}
    .fil8 {fill:#F26161;fill-rule:nonzero}
    .fil11 {fill:#F5FAFD;fill-rule:nonzero}
    .fil5 {fill:#F79534;fill-rule:nonzero}
    .fil2 {fill:#FCEE21;fill-rule:nonzero}
    .fil1 {fill:#FEFEFE;fill-rule:nonzero}
   ]]>
  </style>
 </defs>
 <g id="Camada_x0020_1">
  <metadata id="CorelCorpID_0Corel-Layer"/>
  <rect class="fil0" transform="matrix(0.719108 -0.694899 0.474851 0.491394 12851.7 4129.87)" width="66.15" height="158.75"/>
 </g>
 <g id="Camada_x0020_1_0">
  <metadata id="CorelCorpID_1Corel-Layer"/>
  <g id="_1025987776">
   <g>
    <g>
     <path class="fil1" d="M1789 2190c0,-99 70,-140 156,-90l484 279c85,49 85,131 0,180l-484 279c-86,50 -156,9 -156,-90l0 -558z"/>
     <path class="fil2" d="M1962 4147c371,0 206,0 207,0 57,-4 92,-48 92,-95l0 -597c-131,25 -262,25 -393,0l0 597c0,53 43,95 94,95z"/>
     <path class="fil3" d="M1318 3148l-351 483c-27,38 -23,90 9,122 26,22 1,3 175,129 54,35 107,18 134,-20l351 -483c-120,-56 -228,-135 -318,-231z"/>
     <path class="fil4" d="M1053 2578l-568 184c-49,16 -77,70 -61,119 37,111 22,67 64,194 16,50 69,77 119,61l568 -185c-64,-113 -106,-239 -122,-373z"/>
     <path class="fil5" d="M485 2149l567 184c16,-134 58,-261 121,-374l-566 -184c-50,-16 -103,11 -119,61 -27,83 -13,40 -64,194 -16,49 12,103 61,119z"/>
     <path class="fil6" d="M2964 3524l-47 -65c335,-280 507,-706 452,-1161 -70,-578 -483,-1024 -1051,-1135 -84,-17 -169,-25 -254,-25 -245,0 -484,69 -690,196l-47 -65c225,-141 476,-215 734,-215 674,0 1402,535 1402,1400 0,416 -183,804 -499,1070zm-1976 -2377c-42,31 -51,90 -21,132l350 482c236,-253 589,-377 944,-307 960,188 1131,1507 232,1925l351 483c28,39 79,50 120,29 498,-316 796,-854 796,-1437 0,-1395 -1626,-2233 -2772,-1307z"/>
     <path class="fil1" d="M1379 4214l685 637 686 -638c-446,110 -916,113 -1371,1z"/>
    </g>
    <path class="fil1" d="M4376 1138l0 1701 384 0 0 -712 634 0 0 712 383 0 0 -1701 -383 0 0 654 -634 0 0 -654 -384 0zm2671 1264l131 437 417 0 -530 -1701 -505 0 -518 1701 397 0 121 -437 487 0zm-432 -287l101 -361c28,-99 53,-227 79,-328l5 0c25,101 55,227 86,328l106 361 -377 0zm2383 376c-78,33 -204,55 -323,55 -341,0 -542,-214 -542,-555 0,-379 237,-563 540,-563 139,0 247,30 323,63l81 -303c-69,-38 -220,-75 -419,-75 -515,0 -929,320 -929,901 0,484 303,853 891,853 204,0 366,-40 434,-73l-56 -303zm361 348l382 0 0 -555 143 -179 419 734 447 0 -590 -977 562 -724 -474 0 -384 565c-40,61 -81,121 -118,187l-5 0 0 -752 -382 0 0 1701z"/>
    <path class="fil7" d="M4378 5117l455 0 0 -812 725 0 0 -371 -725 0 0 -461 776 0 0 -375 -1231 0 0 2019zm2836 -1225l-742 0 0 -419 787 0 0 -375 -1243 0 0 2019 1285 0 0 -374 -829 0 0 -480 742 0 0 -371zm381 1129c114,63 341,126 572,126 554,0 812,-287 812,-626 0,-285 -165,-470 -522,-602 -263,-99 -374,-156 -374,-285 0,-101 96,-194 294,-194 194,0 341,57 419,96l102 -366c-120,-57 -285,-102 -515,-102 -474,0 -764,261 -764,605 0,294 221,480 557,599 243,84 338,156 338,282 0,132 -110,219 -320,219 -195,0 -387,-63 -506,-126l-93 374zm2147 96l456 0 0 -1635 551 0 0 -384 -1552 0 0 384 545 0 0 1635z"/>
    <path class="fil1" d="M6344 770c0,-2 1,-7 3,-14l175 -512c4,-11 19,-16 45,-16l41 0c26,0 42,5 46,16l175 512c1,5 2,10 2,14 0,12 -13,18 -40,18l-35 0c-26,0 -41,-6 -44,-17l-32 -97 -188 0 -31 97c-4,11 -16,17 -37,17l-32 0c-32,0 -48,-6 -48,-18zm183 -201l119 0 -46 -142 -11 -51 -4 0c-4,25 -8,42 -12,51l-46 142zm353 193l0 -252c0,-40 -1,-68 -4,-83 -4,-16 -5,-26 -5,-29 0,-9 11,-15 32,-19 21,-4 37,-7 48,-7 11,0 18,2 21,4 4,2 6,5 9,10 2,4 3,8 4,11 1,3 3,8 4,14 1,7 2,12 3,13 12,-17 29,-31 50,-43 21,-11 43,-17 67,-17 55,0 90,20 105,60 14,-17 31,-31 53,-43 21,-11 45,-17 70,-17 39,0 69,10 88,31 18,21 28,54 28,98l0 269c0,17 -16,26 -48,26l-22 0c-32,0 -48,-9 -48,-26l0 -252c0,-33 -16,-49 -47,-49 -26,0 -47,15 -63,46l0 255c0,17 -16,26 -47,26l-23 0c-31,0 -47,-9 -47,-26l0 -252c0,-33 -16,-49 -47,-49 -26,0 -47,15 -63,46l0 255c0,17 -16,26 -48,26l-22 0c-32,0 -48,-9 -48,-26zm659 -86c0,-15 1,-28 4,-40 2,-13 8,-26 18,-40 9,-14 22,-25 38,-34 38,-23 94,-34 168,-34l0 -26c0,-30 -21,-45 -62,-45 -29,0 -58,6 -85,19 -10,4 -15,6 -17,6 -8,0 -17,-8 -27,-24 -9,-17 -14,-30 -14,-39 0,-15 14,-27 44,-39 29,-11 65,-16 108,-16 114,0 171,44 171,133l0 149c0,33 1,60 4,83l5 32c0,9 -11,15 -32,19 -22,5 -38,7 -48,7 -11,0 -18,-1 -21,-3 -4,-3 -7,-6 -9,-11 -2,-5 -3,-9 -4,-12 -2,-3 -3,-8 -4,-16 -1,-7 -2,-12 -3,-13 -9,17 -26,31 -49,43 -23,11 -46,17 -68,17 -40,0 -70,-10 -89,-32 -19,-21 -28,-49 -28,-84zm117 -12c0,11 3,19 10,26 7,6 17,9 31,9 14,0 27,-5 40,-14 14,-10 23,-22 30,-36l0 -44c-74,0 -111,20 -111,59zm338 260l0 -414c0,-40 -1,-68 -5,-83 -3,-16 -4,-26 -4,-29 0,-9 10,-15 32,-19 21,-4 37,-7 48,-7 11,0 18,2 21,4 4,2 6,5 8,10 3,4 4,8 5,11 1,3 2,8 4,14 1,7 2,11 3,12 9,-17 23,-31 42,-43 19,-11 40,-16 64,-16 44,0 80,19 107,57 28,37 42,90 42,156 0,67 -15,119 -44,158 -30,38 -71,57 -124,57 -31,0 -58,-8 -81,-24l0 156c0,17 -16,26 -48,26l-22 0c-32,0 -48,-9 -48,-26zm174 -225c49,0 73,-40 73,-119 0,-80 -21,-120 -64,-120 -25,0 -47,16 -65,47l0 177c18,10 36,15 56,15zm260 -23c0,-15 1,-28 4,-40 2,-13 8,-26 18,-40 9,-14 22,-25 38,-34 38,-23 94,-34 168,-34l0 -26c0,-30 -21,-45 -62,-45 -29,0 -58,6 -85,19 -10,4 -15,6 -17,6 -8,0 -17,-8 -27,-24 -10,-17 -14,-30 -14,-39 0,-15 14,-27 44,-39 29,-11 65,-16 107,-16 114,0 171,44 171,133l0 149c0,33 2,60 5,83l5 32c0,9 -11,15 -32,19 -22,5 -38,7 -48,7 -11,0 -18,-1 -21,-3 -4,-3 -7,-6 -9,-11 -2,-5 -4,-9 -5,-12 -1,-3 -2,-8 -3,-16 -1,-7 -2,-12 -3,-13 -9,17 -26,31 -49,43 -24,11 -46,17 -68,17 -41,0 -70,-10 -89,-32 -19,-21 -28,-49 -28,-84zm116 -12c0,11 4,19 11,26 7,6 17,9 31,9 14,0 27,-5 40,-14 14,-10 23,-22 30,-36l0 -44c-74,0 -112,20 -112,59zm40 -351c-16,0 -24,-4 -24,-12 0,-5 3,-14 11,-26 8,-11 15,-23 21,-34 6,-11 13,-22 19,-33 8,-14 29,-22 64,-22 34,0 51,4 51,12 0,3 -1,6 -4,11 -3,4 -10,11 -19,21 -10,10 -17,16 -20,20 -4,4 -10,11 -17,19 -7,8 -15,16 -22,24 -12,13 -32,20 -60,20z"/>
    <path class="fil8" d="M5871 4340c-117,0 -212,95 -212,212 0,116 95,211 212,211 117,0 212,-95 212,-211 0,-117 -95,-212 -212,-212zm0 530c-176,0 -318,-143 -318,-318 0,-176 142,-319 318,-319 176,0 319,143 319,319 0,175 -143,318 -319,318z"/>
    <path class="fil9" d="M180 4477l259 135 -13 -292 -246 157zm356 287l-536 -279 509 -325 27 604z"/>
    <g>
     <polygon class="fil2" points="4670,702 4272,65 4377,0 4774,637 "/>
     <polygon class="fil2" points="4237,602 4172,498 4809,101 4874,205 "/>
    </g>
    <polygon class="fil10" points="138,1234 789,583 683,477 32,1128 "/>
   </g>
   <g>
    <path class="fil11" d="M10954 4377c0,-104 49,-156 146,-156 22,0 42,3 62,8 20,6 30,14 30,22 0,7 -3,15 -10,26 -7,10 -13,16 -18,16 -1,0 -4,-1 -10,-4 -15,-7 -33,-10 -55,-10 -51,0 -76,33 -76,99 0,66 25,100 75,100 21,0 41,-5 61,-14 6,-3 10,-4 11,-4 6,0 12,5 18,15 5,10 8,18 8,23 0,12 -11,21 -32,27 -22,7 -44,10 -66,10 -49,0 -85,-13 -109,-38 -24,-26 -35,-66 -35,-120zm308 117c-24,-27 -36,-65 -36,-116 0,-51 12,-90 36,-117 24,-27 59,-40 105,-40 45,0 80,13 104,40 24,27 36,66 36,117 0,51 -12,89 -36,116 -24,28 -59,41 -104,41 -46,0 -81,-13 -105,-41zm51 -42c12,17 30,26 54,26 23,0 41,-9 53,-26 12,-17 18,-42 18,-74 0,-33 -6,-57 -18,-74 -12,-17 -30,-25 -53,-25 -24,0 -42,8 -54,25 -12,17 -18,41 -18,74 0,32 6,57 18,74zm244 66l0 -281c0,-9 9,-14 26,-14l19 0c14,0 24,4 29,12l116 178 0 -176c0,-9 9,-14 26,-14l13 0c17,0 26,5 26,14l0 281c0,10 -9,14 -26,14l-17 0c-14,0 -23,-3 -29,-11l-117 -180 0 177c0,10 -9,14 -27,14l-13 0c-17,0 -26,-4 -26,-14zm372 0l0 -236 -70 0c-9,0 -13,-8 -13,-22l0 -14c0,-14 4,-22 13,-22l208 0c9,0 13,8 13,22l0 14c0,14 -4,22 -13,22l-70 0 0 236c0,10 -9,14 -26,14l-16 0c-17,0 -26,-4 -26,-14zm185 0l0 -276c0,-12 6,-18 18,-18l85 0c73,0 110,28 110,83 0,16 -5,30 -14,43 -10,12 -22,21 -38,27l0 1c6,2 11,7 17,15 6,8 11,16 15,26l38 96c2,4 3,7 3,9 0,6 -9,8 -27,8l-18 0c-14,0 -23,-3 -25,-9l-35 -85c-5,-10 -10,-17 -16,-21 -6,-4 -15,-6 -28,-6l-17 0 0 107c0,10 -9,14 -27,14l-15 0c-17,0 -26,-4 -26,-14zm68 -165l41 0c9,0 17,-4 24,-11 7,-7 10,-16 10,-27 0,-10 -3,-18 -10,-24 -6,-6 -15,-9 -27,-9l-38 0 0 71zm170 170c0,-1 0,-4 1,-8l97 -282c2,-7 11,-10 25,-10l23 0c14,0 22,3 25,10l96 282c1,3 2,5 2,8 0,6 -8,9 -22,9l-20 0c-14,0 -22,-3 -24,-9l-18 -53 -103 0 -18 53c-2,6 -9,9 -20,9l-18 0c-18,0 -26,-3 -26,-9zm101 -111l65 0 -25 -78 -6 -29 -2 0c-3,14 -5,24 -7,29l-25 78zm379 111c0,-1 0,-4 1,-8l97 -282c2,-7 11,-10 25,-10l23 0c14,0 23,3 25,10l96 282c1,3 2,5 2,8 0,6 -8,9 -22,9l-19 0c-15,0 -23,-3 -25,-9l-18 -53 -103 0 -18 53c-2,6 -9,9 -20,9l-18 0c-17,0 -26,-3 -26,-9zm101 -111l65 0 -25 -78 -6 -29 -2 0c-3,14 -5,24 -7,29l-25 78zm-1979 468c0,-104 49,-156 146,-156 22,0 42,3 62,9 20,6 30,13 30,22 0,6 -3,15 -10,25 -7,11 -13,16 -18,16 -1,0 -4,-1 -10,-4 -15,-7 -33,-10 -55,-10 -51,0 -76,33 -76,99 0,67 25,100 75,100 21,0 41,-5 61,-13 6,-3 10,-5 11,-5 6,0 12,5 18,15 5,11 8,18 8,24 0,11 -11,20 -32,27 -22,6 -44,9 -66,9 -49,0 -85,-12 -109,-38 -24,-26 -35,-66 -35,-120zm308 118c-24,-27 -36,-66 -36,-117 0,-50 12,-89 36,-116 24,-27 59,-41 105,-41 45,0 80,14 104,41 24,27 36,66 36,116 0,51 -12,90 -36,117 -24,27 -59,40 -104,40 -46,0 -81,-13 -105,-40zm51 -43c12,17 30,26 54,26 23,0 41,-9 53,-26 12,-17 18,-41 18,-74 0,-32 -6,-57 -18,-74 -12,-17 -30,-25 -53,-25 -24,0 -42,8 -54,25 -12,17 -18,42 -18,74 0,33 6,57 18,74zm244 67l0 -277c0,-12 6,-18 18,-18l85 0c73,0 110,28 110,83 0,16 -5,31 -14,43 -9,12 -22,21 -38,27l0 2c6,2 12,7 17,14 6,8 11,17 15,26l39 97c1,3 2,6 2,8 0,6 -9,9 -27,9l-18 0c-14,0 -23,-3 -25,-9l-35 -86c-5,-10 -10,-17 -16,-21 -6,-3 -15,-5 -28,-5l-17 0 0 107c0,9 -9,14 -27,14l-15 0c-17,0 -26,-5 -26,-14zm68 -166l41 0c10,0 17,-4 24,-11 7,-7 10,-16 10,-26 0,-11 -3,-19 -10,-25 -6,-6 -15,-9 -27,-9l-38 0 0 71zm200 166l0 -277c0,-12 6,-18 18,-18l85 0c73,0 110,28 110,83 0,16 -5,31 -14,43 -9,12 -22,21 -38,27l0 2c6,2 11,7 17,14 6,8 11,17 15,26l38 97c2,3 3,6 3,8 0,6 -9,9 -27,9l-18 0c-14,0 -23,-3 -25,-9l-35 -86c-5,-10 -10,-17 -16,-21 -6,-3 -15,-5 -28,-5l-17 0 0 107c0,9 -9,14 -27,14l-15 0c-17,0 -26,-5 -26,-14zm68 -166l41 0c9,0 17,-4 24,-11 7,-7 10,-16 10,-26 0,-11 -3,-19 -10,-25 -6,-6 -15,-9 -27,-9l-38 0 0 71zm199 76l0 -191c0,-10 8,-14 26,-14l15 0c17,0 26,4 26,14l0 187c0,15 6,28 17,38 11,10 25,15 43,15 18,0 32,-5 43,-15 11,-10 17,-23 17,-38l0 -187c0,-10 9,-14 26,-14l15 0c18,0 26,4 26,14l0 191c0,34 -11,60 -33,79 -22,18 -54,27 -94,27 -40,0 -72,-9 -94,-27 -22,-19 -33,-45 -33,-79zm314 90l0 -277c0,-12 5,-18 17,-18l92 0c35,0 61,9 80,26 7,7 13,16 18,28 4,12 7,27 7,43 0,16 -3,30 -8,42 -6,12 -13,22 -20,28 -8,7 -17,12 -27,16 -16,7 -31,10 -45,10l-47 0 0 102c0,9 -9,14 -26,14l-15 0c-18,0 -26,-5 -26,-14zm67 -160l39 0c11,0 20,-3 27,-8 8,-6 12,-16 12,-30 0,-15 -4,-25 -12,-30 -7,-6 -16,-9 -27,-9l-39 0 0 77zm245 229c3,-3 6,-5 9,-5 3,0 8,2 17,5 9,3 16,5 23,5 7,0 11,-3 11,-8 0,-4 -4,-7 -12,-11 -8,-3 -12,-6 -12,-10 0,-3 3,-13 9,-30 -40,-4 -70,-19 -89,-45 -19,-26 -29,-63 -29,-112 0,-104 49,-156 147,-156 21,0 42,3 62,9 20,6 30,13 30,22 0,6 -4,15 -10,25 -7,11 -13,16 -19,16 -1,0 -4,-1 -9,-4 -15,-7 -34,-10 -55,-10 -51,0 -76,33 -76,99 0,67 25,100 75,100 21,0 41,-5 60,-13 7,-3 11,-5 12,-5 6,0 12,5 17,15 6,11 9,18 9,24 0,11 -11,20 -32,27 -21,6 -42,9 -64,9l-3 12c22,5 34,16 34,34 0,29 -18,44 -52,44 -14,0 -27,-2 -40,-7 -12,-4 -18,-9 -18,-15 0,-7 2,-12 5,-15zm179 -65c0,-1 1,-4 2,-8l97 -282c2,-6 11,-9 25,-9l23 0c14,0 22,3 25,9l96 282c1,3 2,6 2,8 0,7 -8,10 -22,10l-20 0c-14,0 -22,-3 -24,-9l-18 -54 -103 0 -18 54c-2,6 -9,9 -20,9l-18 0c-18,0 -27,-3 -27,-10zm101 -111l66 0 -25 -78 -6 -28 -2 0c-3,13 -5,23 -7,28l-26 78zm1 -229l-19 5c-5,0 -9,-3 -13,-7 -4,-4 -6,-9 -6,-14 0,-6 5,-11 15,-17 10,-5 20,-8 30,-8 10,0 21,1 32,4 12,3 20,5 25,5l21 -5c4,0 8,2 12,6 4,4 6,9 6,15 0,5 -5,11 -15,16 -10,6 -20,9 -30,9 -10,0 -21,-2 -33,-5 -11,-3 -20,-4 -25,-4zm224 312c-24,-27 -37,-66 -37,-117 0,-50 13,-89 37,-116 24,-27 59,-41 104,-41 46,0 81,14 105,41 24,27 36,66 36,116 0,51 -12,90 -36,117 -24,27 -59,40 -105,40 -45,0 -80,-13 -104,-40zm51 -43c12,17 30,26 53,26 24,0 42,-9 54,-26 12,-17 18,-41 18,-74 0,-32 -6,-57 -18,-74 -12,-17 -30,-25 -54,-25 -23,0 -41,8 -53,25 -12,17 -18,42 -18,74 0,33 6,57 18,74z"/>
    <path class="fil12" d="M10788 3791l2845 0c82,0 149,59 149,131l0 1504c0,73 -67,132 -149,132l-2845 0c-81,0 -148,-59 -148,-132l0 -1504c0,-72 67,-131 148,-131zm-63 64l2979 0 8 1633 -2987 -4 0 -1629z"/>
    <path class="fil12" d="M10699 5635l-421 537 6 135 3860 2 0 -133 -429 -544 -3016 3zm57 77l-302 424 1157 -2 103 -256 1009 -3 94 261 1170 -1 -302 -422 -2929 -1z"/>
    <path class="fil12" d="M13779 5722c0,-2 -5,-14 1,-8 196,191 604,8 546,110 -3,-85 -310,100 -547,-102z"/>
    <g>
     <path class="fil12" d="M14503 5942c21,1 6,-4 37,10l99 54 60 46c4,4 7,8 12,13 47,43 75,112 34,170 -16,23 -64,62 -94,76 -37,18 -89,30 -127,9 -27,-15 -16,-50 -80,-116 -5,-5 -9,-6 -15,-12 -28,-22 -63,-47 -94,-65 -23,-12 -39,-7 -36,-28 0,-1 0,-1 0,-2 0,0 0,-1 0,-1 3,-13 9,-14 20,-29l40 -44c24,-23 53,-40 81,-58 14,-9 19,-14 39,-21 2,-1 10,-3 11,-3 14,-2 12,0 13,1z"/>
     <path class="fil12" d="M14569 6343c-4,3 1,1 -5,2 -1,1 -7,1 -7,1 -9,-1 -6,-1 -14,-3 -9,-3 -15,-6 -25,-10 -12,-5 -12,-5 -22,-14 -8,-7 -12,-9 -21,-14l-210 -154c-16,-13 -25,-19 -35,-41 31,1 77,12 104,27 44,25 88,56 122,93 14,15 22,27 32,47 23,47 18,53 69,60 14,2 6,-3 12,6z"/>
     <path class="fil12" d="M14351 6018c-8,11 -19,16 -41,46 -9,12 -17,25 -27,29 8,4 7,3 10,16 -12,2 -8,1 -17,-2 -26,-7 -24,-2 -38,-5 -7,-1 -11,-3 -17,-5 -4,-19 -1,-30 17,-48l24 -24c16,-16 15,-14 42,-13l47 6z"/>
     <path class="fil12" d="M14421 5966l-4 3c0,0 -3,2 -3,2 -19,13 -40,26 -55,42 -39,-10 -54,-7 -68,-10 7,-14 40,-32 57,-38 23,-9 51,-6 73,1z"/>
     <path class="fil12" d="M14494 5931c-3,3 1,1 -6,3 -8,4 -16,4 -29,10 -59,28 -12,11 -64,9l-37 -2c46,-14 39,-22 104,-22 13,0 18,4 32,2z"/>
     <path class="fil12" d="M14664 6322c-6,2 -75,40 -89,20 10,-10 40,0 100,-36 24,-14 34,-22 54,-42 9,-10 7,-13 19,-16 -7,18 -42,46 -58,57 -11,8 -9,12 -26,17z"/>
    </g>
    <path class="fil12" d="M14306 5970c-6,-5 -11,-11 -12,-19 -12,-63 71,-109 35,-165 54,29 -29,111 -28,153 0,17 1,14 5,31z"/>
   </g>
  </g>
 </g>
</svg>
